# xmcd CD database file
#
# Track frame offsets:
#	150
#	16501
#	28712
#	45563
#	59312
#	75001
#	87255
#	103244
#	118372
#	134621
#	148447
#
# Disc length: 2355 seconds
#
# Revision: 2
# Processed by: cddbd v1.4b41PL1 Copyright (c) Steve Scherf et al.
# Submitted via: Feurio! 1.60 - http://www.feurio.com
#
DISCID=9109310b,9509310b
DTITLE=Michael Peterson - Michael Peterson
DYEAR=1900
DGENRE=
TTITLE0=Lost In The Shuffle
TTITLE1=Loves Great
TTITLE2=When The Bartender Cries
TTITLE3=Drink, Swear, Steal  And Lie
TTITLE4=I Finally Passed the Bar (with Travis Tritt)
TTITLE5=From Here To Eternity
TTITLE6=That's What They Said About The Buffalo
TTITLE7=Too Good To Be True
TTITLE8=Since I Thought I Knew It All
TTITLE9=By The Book
TTITLE10=For A Song
EXTD=
EXTT0=
EXTT1=
EXTT2=
EXTT3=
EXTT4=
EXTT5=
EXTT6=
EXTT7=
EXTT8=
EXTT9=
EXTT10=
PLAYORDER=
